<svg width="297" height="99" viewBox="0 0 297 99" fill="none" xmlns="http://www.w3.org/2000/svg">
<g clip-path="url(#clip0_7_13)">
<path d="M0.5 -0.5H70.5C87.0685 -0.5 100.5 12.9315 100.5 29.5V99.5H30.5C13.9315 99.5 0.5 86.0685 0.5 69.5V-0.5Z" fill="#22577A"/>
<mask id="path-2-inside-1_7_13" fill="white">
<path d="M43.46 60.76C43.46 64.84 42.332 67.912 40.076 69.976C37.868 71.992 34.676 73 30.5 73H23.66V67.528H31.22C32.996 67.528 34.436 67 35.54 65.944C36.644 64.888 37.196 63.616 37.196 62.128V28H26.324V22.6H43.46V60.76ZM67.2116 73C63.0356 73 59.8196 71.992 57.5636 69.976C55.3556 67.912 54.2516 64.84 54.2516 60.76V34.84C54.2516 30.76 55.3556 27.712 57.5636 25.696C59.8196 23.632 63.0356 22.6 67.2116 22.6H75.9956V28.072H66.4916C64.7156 28.072 63.2756 28.6 62.1716 29.656C61.0676 30.712 60.5156 31.984 60.5156 33.472V62.128C60.5156 63.616 61.0676 64.888 62.1716 65.944C63.2756 67 64.7156 67.528 66.4916 67.528H75.9956V73H67.2116Z"/>
</mask>
<path d="M43.46 60.76C43.46 64.84 42.332 67.912 40.076 69.976C37.868 71.992 34.676 73 30.5 73H23.66V67.528H31.22C32.996 67.528 34.436 67 35.54 65.944C36.644 64.888 37.196 63.616 37.196 62.128V28H26.324V22.6H43.46V60.76ZM67.2116 73C63.0356 73 59.8196 71.992 57.5636 69.976C55.3556 67.912 54.2516 64.84 54.2516 60.76V34.84C54.2516 30.76 55.3556 27.712 57.5636 25.696C59.8196 23.632 63.0356 22.6 67.2116 22.6H75.9956V28.072H66.4916C64.7156 28.072 63.2756 28.6 62.1716 29.656C61.0676 30.712 60.5156 31.984 60.5156 33.472V62.128C60.5156 63.616 61.0676 64.888 62.1716 65.944C63.2756 67 64.7156 67.528 66.4916 67.528H75.9956V73H67.2116Z" fill="white"/>
<path d="M40.076 69.976L40.7503 70.7145L40.751 70.7138L40.076 69.976ZM23.66 73H22.66V74H23.66V73ZM23.66 67.528V66.528H22.66V67.528H23.66ZM37.196 28H38.196V27H37.196V28ZM26.324 28H25.324V29H26.324V28ZM26.324 22.6V21.6H25.324V22.6H26.324ZM43.46 22.6H44.46V21.6H43.46V22.6ZM42.46 60.76C42.46 64.6576 41.3871 67.4211 39.401 69.2382L40.751 70.7138C43.2769 68.4029 44.46 65.0223 44.46 60.76H42.46ZM39.4017 69.2375C37.4401 71.0286 34.5257 72 30.5 72V74C34.8263 74 38.2959 72.9554 40.7503 70.7145L39.4017 69.2375ZM30.5 72H23.66V74H30.5V72ZM24.66 73V67.528H22.66V73H24.66ZM23.66 68.528H31.22V66.528H23.66V68.528ZM31.22 68.528C33.2086 68.528 34.911 67.9295 36.2312 66.6666L34.8488 65.2214C33.961 66.0705 32.7834 66.528 31.22 66.528V68.528ZM36.2312 66.6666C37.5265 65.4277 38.196 63.897 38.196 62.128H36.196C36.196 63.335 35.7615 64.3483 34.8488 65.2214L36.2312 66.6666ZM38.196 62.128V28H36.196V62.128H38.196ZM37.196 27H26.324V29H37.196V27ZM27.324 28V22.6H25.324V28H27.324ZM26.324 23.6H43.46V21.6H26.324V23.6ZM42.46 22.6V60.76H44.46V22.6H42.46ZM57.5636 69.976L56.8807 70.7065L56.8889 70.7142L56.8972 70.7217L57.5636 69.976ZM57.5636 25.696L58.2378 26.4345L58.2386 26.4338L57.5636 25.696ZM75.9956 22.6H76.9956V21.6H75.9956V22.6ZM75.9956 28.072V29.072H76.9956V28.072H75.9956ZM62.1716 29.656L61.4803 28.9334L62.1716 29.656ZM75.9956 67.528H76.9956V66.528H75.9956V67.528ZM75.9956 73V74H76.9956V73H75.9956ZM67.2116 72C63.1876 72 60.243 71.0293 58.2299 69.2303L56.8972 70.7217C59.3961 72.9547 62.8835 74 67.2116 74V72ZM58.2464 69.2455C56.3041 67.4298 55.2516 64.6638 55.2516 60.76H53.2516C53.2516 65.0162 54.407 68.3942 56.8807 70.7065L58.2464 69.2455ZM55.2516 60.76V34.84H53.2516V60.76H55.2516ZM55.2516 34.84C55.2516 30.9345 56.3047 28.1995 58.2378 26.4345L56.8893 24.9575C54.4064 27.2245 53.2516 30.5855 53.2516 34.84H55.2516ZM58.2386 26.4338C60.2519 24.5919 63.1931 23.6 67.2116 23.6V21.6C62.8781 21.6 59.3873 22.6721 56.8885 24.9582L58.2386 26.4338ZM67.2116 23.6H75.9956V21.6H67.2116V23.6ZM74.9956 22.6V28.072H76.9956V22.6H74.9956ZM75.9956 27.072H66.4916V29.072H75.9956V27.072ZM66.4916 27.072C64.503 27.072 62.8006 27.6705 61.4803 28.9334L62.8628 30.3786C63.7506 29.5295 64.9282 29.072 66.4916 29.072V27.072ZM61.4803 28.9334C60.1851 30.1723 59.5156 31.703 59.5156 33.472H61.5156C61.5156 32.265 61.9501 31.2517 62.8628 30.3786L61.4803 28.9334ZM59.5156 33.472V62.128H61.5156V33.472H59.5156ZM59.5156 62.128C59.5156 63.897 60.1851 65.4277 61.4803 66.6666L62.8628 65.2214C61.9501 64.3483 61.5156 63.335 61.5156 62.128H59.5156ZM61.4803 66.6666C62.8006 67.9295 64.503 68.528 66.4916 68.528V66.528C64.9282 66.528 63.7506 66.0705 62.8628 65.2214L61.4803 66.6666ZM66.4916 68.528H75.9956V66.528H66.4916V68.528ZM74.9956 67.528V73H76.9956V67.528H74.9956ZM75.9956 72H67.2116V74H75.9956V72Z" fill="black" fill-opacity="0.05" mask="url(#path-2-inside-1_7_13)"/>
<mask id="path-4-inside-2_7_13" fill="white">
<path d="M127.46 51.26C127.46 55.34 126.332 58.412 124.076 60.476C121.868 62.492 118.676 63.5 114.5 63.5H107.66V58.028H115.22C116.996 58.028 118.436 57.5 119.54 56.444C120.644 55.388 121.196 54.116 121.196 52.628V18.5H110.324V13.1H127.46V51.26ZM284.243 63.5C280.067 63.5 276.851 62.492 274.595 60.476C272.387 58.412 271.283 55.34 271.283 51.26V25.34C271.283 21.26 272.387 18.212 274.595 16.196C276.851 14.132 280.067 13.1 284.243 13.1H293.027V18.572H283.523C281.747 18.572 280.307 19.1 279.203 20.156C278.099 21.212 277.547 22.484 277.547 23.972V52.628C277.547 54.116 278.099 55.388 279.203 56.444C280.307 57.5 281.747 58.028 283.523 58.028H293.027V63.5H284.243Z"/>
<path d="M160.5 51.26C160.5 55.34 159.372 58.412 157.116 60.476C154.908 62.492 151.716 63.5 147.54 63.5H138.036V58.028H148.26C150.036 58.028 151.476 57.5 152.58 56.444C153.684 55.388 154.236 54.116 154.236 52.628V45.14C154.236 43.7 153.852 42.548 153.084 41.684C152.364 40.772 151.26 40.316 149.772 40.316H148.332C144.78 40.316 141.972 39.284 139.908 37.22C137.844 35.108 136.812 32.06 136.812 28.076V25.34C136.812 21.26 137.916 18.212 140.124 16.196C142.38 14.132 145.596 13.1 149.772 13.1H159.348V18.572H149.052C147.276 18.572 145.836 19.1 144.732 20.156C143.628 21.212 143.076 22.484 143.076 23.972V29.444C143.076 30.932 143.556 32.18 144.516 33.188C145.476 34.148 146.724 34.628 148.26 34.628H149.7C153.108 34.628 155.748 35.612 157.62 37.58C159.54 39.548 160.5 42.524 160.5 46.508V51.26ZM198.26 51.26C198.26 55.34 197.132 58.412 194.876 60.476C192.668 62.492 189.476 63.5 185.3 63.5H182.852C178.676 63.5 175.46 62.492 173.204 60.476C170.996 58.412 169.892 55.34 169.892 51.26V25.34C169.892 21.26 170.996 18.212 173.204 16.196C175.46 14.132 178.676 13.1 182.852 13.1H185.3C189.476 13.1 192.668 14.132 194.876 16.196C197.132 18.212 198.26 21.26 198.26 25.34V51.26ZM191.996 23.972C191.996 22.484 191.444 21.212 190.34 20.156C189.236 19.1 187.796 18.572 186.02 18.572H182.132C180.356 18.572 178.916 19.1 177.812 20.156C176.708 21.212 176.156 22.484 176.156 23.972V52.628C176.156 54.116 176.708 55.388 177.812 56.444C178.916 57.5 180.356 58.028 182.132 58.028H186.02C187.796 58.028 189.236 57.5 190.34 56.444C191.444 55.388 191.996 54.116 191.996 52.628V23.972ZM226.624 63.5L215.608 18.428V63.5H209.776V13.1H220L231.088 58.172V13.1H236.92V63.5H226.624ZM246.271 63.5V58.244H251.311V18.356H246.271V13.1H262.615V18.356H257.575V58.244H262.615V63.5H246.271Z"/>
</mask>
<path d="M127.46 51.26C127.46 55.34 126.332 58.412 124.076 60.476C121.868 62.492 118.676 63.5 114.5 63.5H107.66V58.028H115.22C116.996 58.028 118.436 57.5 119.54 56.444C120.644 55.388 121.196 54.116 121.196 52.628V18.5H110.324V13.1H127.46V51.26ZM284.243 63.5C280.067 63.5 276.851 62.492 274.595 60.476C272.387 58.412 271.283 55.34 271.283 51.26V25.34C271.283 21.26 272.387 18.212 274.595 16.196C276.851 14.132 280.067 13.1 284.243 13.1H293.027V18.572H283.523C281.747 18.572 280.307 19.1 279.203 20.156C278.099 21.212 277.547 22.484 277.547 23.972V52.628C277.547 54.116 278.099 55.388 279.203 56.444C280.307 57.5 281.747 58.028 283.523 58.028H293.027V63.5H284.243Z" fill="#22577A"/>
<path d="M160.5 51.26C160.5 55.34 159.372 58.412 157.116 60.476C154.908 62.492 151.716 63.5 147.54 63.5H138.036V58.028H148.26C150.036 58.028 151.476 57.5 152.58 56.444C153.684 55.388 154.236 54.116 154.236 52.628V45.14C154.236 43.7 153.852 42.548 153.084 41.684C152.364 40.772 151.26 40.316 149.772 40.316H148.332C144.78 40.316 141.972 39.284 139.908 37.22C137.844 35.108 136.812 32.06 136.812 28.076V25.34C136.812 21.26 137.916 18.212 140.124 16.196C142.38 14.132 145.596 13.1 149.772 13.1H159.348V18.572H149.052C147.276 18.572 145.836 19.1 144.732 20.156C143.628 21.212 143.076 22.484 143.076 23.972V29.444C143.076 30.932 143.556 32.18 144.516 33.188C145.476 34.148 146.724 34.628 148.26 34.628H149.7C153.108 34.628 155.748 35.612 157.62 37.58C159.54 39.548 160.5 42.524 160.5 46.508V51.26ZM198.26 51.26C198.26 55.34 197.132 58.412 194.876 60.476C192.668 62.492 189.476 63.5 185.3 63.5H182.852C178.676 63.5 175.46 62.492 173.204 60.476C170.996 58.412 169.892 55.34 169.892 51.26V25.34C169.892 21.26 170.996 18.212 173.204 16.196C175.46 14.132 178.676 13.1 182.852 13.1H185.3C189.476 13.1 192.668 14.132 194.876 16.196C197.132 18.212 198.26 21.26 198.26 25.34V51.26ZM191.996 23.972C191.996 22.484 191.444 21.212 190.34 20.156C189.236 19.1 187.796 18.572 186.02 18.572H182.132C180.356 18.572 178.916 19.1 177.812 20.156C176.708 21.212 176.156 22.484 176.156 23.972V52.628C176.156 54.116 176.708 55.388 177.812 56.444C178.916 57.5 180.356 58.028 182.132 58.028H186.02C187.796 58.028 189.236 57.5 190.34 56.444C191.444 55.388 191.996 54.116 191.996 52.628V23.972ZM226.624 63.5L215.608 18.428V63.5H209.776V13.1H220L231.088 58.172V13.1H236.92V63.5H226.624ZM246.271 63.5V58.244H251.311V18.356H246.271V13.1H262.615V18.356H257.575V58.244H262.615V63.5H246.271Z" fill="url(#paint0_diamond_7_13)"/>
<path d="M124.076 60.476L124.75 61.2145L124.751 61.2138L124.076 60.476ZM107.66 63.5H106.66V64.5H107.66V63.5ZM107.66 58.028V57.028H106.66V58.028H107.66ZM121.196 18.5H122.196V17.5H121.196V18.5ZM110.324 18.5H109.324V19.5H110.324V18.5ZM110.324 13.1V12.1H109.324V13.1H110.324ZM127.46 13.1H128.46V12.1H127.46V13.1ZM126.46 51.26C126.46 55.1576 125.387 57.9211 123.401 59.7382L124.751 61.2138C127.277 58.9029 128.46 55.5223 128.46 51.26H126.46ZM123.402 59.7375C121.44 61.5286 118.526 62.5 114.5 62.5V64.5C118.826 64.5 122.296 63.4554 124.75 61.2145L123.402 59.7375ZM114.5 62.5H107.66V64.5H114.5V62.5ZM108.66 63.5V58.028H106.66V63.5H108.66ZM107.66 59.028H115.22V57.028H107.66V59.028ZM115.22 59.028C117.209 59.028 118.911 58.4295 120.231 57.1666L118.849 55.7214C117.961 56.5705 116.783 57.028 115.22 57.028V59.028ZM120.231 57.1666C121.527 55.9277 122.196 54.397 122.196 52.628H120.196C120.196 53.835 119.761 54.8483 118.849 55.7214L120.231 57.1666ZM122.196 52.628V18.5H120.196V52.628H122.196ZM121.196 17.5H110.324V19.5H121.196V17.5ZM111.324 18.5V13.1H109.324V18.5H111.324ZM110.324 14.1H127.46V12.1H110.324V14.1ZM126.46 13.1V51.26H128.46V13.1H126.46ZM157.116 60.476L157.79 61.2145L157.791 61.2138L157.116 60.476ZM138.036 63.5H137.036V64.5H138.036V63.5ZM138.036 58.028V57.028H137.036V58.028H138.036ZM153.084 41.684L152.299 42.3036L152.317 42.3265L152.336 42.3484L153.084 41.684ZM139.908 37.22L139.192 37.919L139.2 37.9271L139.908 37.22ZM140.124 16.196L140.798 16.9345L140.799 16.9338L140.124 16.196ZM159.348 13.1H160.348V12.1H159.348V13.1ZM159.348 18.572V19.572H160.348V18.572H159.348ZM144.732 20.156L144.04 19.4334L144.732 20.156ZM144.516 33.188L143.791 33.8777L143.8 33.8865L143.808 33.8951L144.516 33.188ZM157.62 37.58L156.895 38.2693L156.904 38.2783L157.62 37.58ZM159.5 51.26C159.5 55.1576 158.427 57.9211 156.441 59.7382L157.791 61.2138C160.316 58.9029 161.5 55.5223 161.5 51.26H159.5ZM156.441 59.7375C154.48 61.5286 151.565 62.5 147.54 62.5V64.5C151.866 64.5 155.336 63.4554 157.79 61.2145L156.441 59.7375ZM147.54 62.5H138.036V64.5H147.54V62.5ZM139.036 63.5V58.028H137.036V63.5H139.036ZM138.036 59.028H148.26V57.028H138.036V59.028ZM148.26 59.028C150.248 59.028 151.951 58.4295 153.271 57.1666L151.888 55.7214C151.001 56.5705 149.823 57.028 148.26 57.028V59.028ZM153.271 57.1666C154.566 55.9277 155.236 54.397 155.236 52.628H153.236C153.236 53.835 152.801 54.8483 151.888 55.7214L153.271 57.1666ZM155.236 52.628V45.14H153.236V52.628H155.236ZM155.236 45.14C155.236 43.5176 154.799 42.1086 153.831 41.0196L152.336 42.3484C152.904 42.9874 153.236 43.8824 153.236 45.14H155.236ZM153.868 41.0644C152.908 39.8472 151.472 39.316 149.772 39.316V41.316C151.047 41.316 151.82 41.6968 152.299 42.3036L153.868 41.0644ZM149.772 39.316H148.332V41.316H149.772V39.316ZM148.332 39.316C144.983 39.316 142.452 38.3501 140.615 36.5129L139.2 37.9271C141.491 40.2179 144.576 41.316 148.332 41.316V39.316ZM140.623 36.5211C138.798 34.6535 137.812 31.8923 137.812 28.076H135.812C135.812 32.2277 136.889 35.5625 139.192 37.9189L140.623 36.5211ZM137.812 28.076V25.34H135.812V28.076H137.812ZM137.812 25.34C137.812 21.4345 138.865 18.6995 140.798 16.9345L139.449 15.4575C136.966 17.7245 135.812 21.0855 135.812 25.34H137.812ZM140.799 16.9338C142.812 15.0919 145.753 14.1 149.772 14.1V12.1C145.438 12.1 141.947 13.1721 139.449 15.4582L140.799 16.9338ZM149.772 14.1H159.348V12.1H149.772V14.1ZM158.348 13.1V18.572H160.348V13.1H158.348ZM159.348 17.572H149.052V19.572H159.348V17.572ZM149.052 17.572C147.063 17.572 145.361 18.1705 144.04 19.4334L145.423 20.8786C146.311 20.0295 147.488 19.572 149.052 19.572V17.572ZM144.04 19.4334C142.745 20.6723 142.076 22.203 142.076 23.972H144.076C144.076 22.765 144.51 21.7517 145.423 20.8786L144.04 19.4334ZM142.076 23.972V29.444H144.076V23.972H142.076ZM142.076 29.444C142.076 31.1693 142.641 32.6701 143.791 33.8777L145.24 32.4983C144.47 31.6899 144.076 30.6947 144.076 29.444H142.076ZM143.808 33.8951C144.981 35.0679 146.496 35.628 148.26 35.628V33.628C146.951 33.628 145.97 33.2281 145.223 32.4809L143.808 33.8951ZM148.26 35.628H149.7V33.628H148.26V35.628ZM149.7 35.628C152.908 35.628 155.257 36.5477 156.895 38.2692L158.344 36.8908C156.238 34.6763 153.307 33.628 149.7 33.628V35.628ZM156.904 38.2783C158.574 39.9899 159.5 42.668 159.5 46.508H161.5C161.5 42.38 160.506 39.1061 158.335 36.8817L156.904 38.2783ZM159.5 46.508V51.26H161.5V46.508H159.5ZM194.876 60.476L195.55 61.2145L195.551 61.2138L194.876 60.476ZM173.204 60.476L172.521 61.2065L172.529 61.2142L172.538 61.2217L173.204 60.476ZM173.204 16.196L173.878 16.9345L173.879 16.9338L173.204 16.196ZM194.876 16.196L194.193 16.9265L194.201 16.9342L194.21 16.9417L194.876 16.196ZM190.34 20.156L191.031 19.4334L190.34 20.156ZM177.812 20.156L177.121 19.4334L177.812 20.156ZM197.26 51.26C197.26 55.1576 196.187 57.9211 194.201 59.7382L195.551 61.2138C198.077 58.9029 199.26 55.5223 199.26 51.26H197.26ZM194.202 59.7375C192.24 61.5286 189.326 62.5 185.3 62.5V64.5C189.627 64.5 193.096 63.4554 195.55 61.2145L194.202 59.7375ZM185.3 62.5H182.852V64.5H185.3V62.5ZM182.852 62.5C178.828 62.5 175.884 61.5293 173.871 59.7303L172.538 61.2217C175.037 63.4547 178.524 64.5 182.852 64.5V62.5ZM173.887 59.7455C171.945 57.9298 170.892 55.1638 170.892 51.26H168.892C168.892 55.5162 170.048 58.8942 172.521 61.2065L173.887 59.7455ZM170.892 51.26V25.34H168.892V51.26H170.892ZM170.892 25.34C170.892 21.4345 171.945 18.6995 173.878 16.9345L172.53 15.4575C170.047 17.7245 168.892 21.0855 168.892 25.34H170.892ZM173.879 16.9338C175.892 15.0919 178.834 14.1 182.852 14.1V12.1C178.519 12.1 175.028 13.1721 172.529 15.4582L173.879 16.9338ZM182.852 14.1H185.3V12.1H182.852V14.1ZM185.3 14.1C189.32 14.1 192.231 15.0925 194.193 16.9265L195.559 15.4655C193.105 13.1715 189.632 12.1 185.3 12.1V14.1ZM194.21 16.9417C196.187 18.7082 197.26 21.4408 197.26 25.34H199.26C199.26 21.0792 198.078 17.7158 195.543 15.4503L194.21 16.9417ZM197.26 25.34V51.26H199.26V25.34H197.26ZM192.996 23.972C192.996 22.203 192.327 20.6723 191.031 19.4334L189.649 20.8786C190.562 21.7517 190.996 22.765 190.996 23.972H192.996ZM191.031 19.4334C189.711 18.1705 188.009 17.572 186.02 17.572V19.572C187.584 19.572 188.761 20.0295 189.649 20.8786L191.031 19.4334ZM186.02 17.572H182.132V19.572H186.02V17.572ZM182.132 17.572C180.144 17.572 178.441 18.1705 177.121 19.4334L178.503 20.8786C179.391 20.0295 180.569 19.572 182.132 19.572V17.572ZM177.121 19.4334C175.826 20.6723 175.156 22.203 175.156 23.972H177.156C177.156 22.765 177.591 21.7517 178.503 20.8786L177.121 19.4334ZM175.156 23.972V52.628H177.156V23.972H175.156ZM175.156 52.628C175.156 54.397 175.826 55.9277 177.121 57.1666L178.503 55.7214C177.591 54.8483 177.156 53.835 177.156 52.628H175.156ZM177.121 57.1666C178.441 58.4295 180.144 59.028 182.132 59.028V57.028C180.569 57.028 179.391 56.5705 178.503 55.7214L177.121 57.1666ZM182.132 59.028H186.02V57.028H182.132V59.028ZM186.02 59.028C188.009 59.028 189.711 58.4295 191.031 57.1666L189.649 55.7214C188.761 56.5705 187.584 57.028 186.02 57.028V59.028ZM191.031 57.1666C192.327 55.9277 192.996 54.397 192.996 52.628H190.996C190.996 53.835 190.562 54.8483 189.649 55.7214L191.031 57.1666ZM192.996 52.628V23.972H190.996V52.628H192.996ZM226.624 63.5L225.653 63.7374L225.839 64.5H226.624V63.5ZM215.608 18.428L216.58 18.1906L214.608 18.428H215.608ZM215.608 63.5V64.5H216.608V63.5H215.608ZM209.776 63.5H208.776V64.5H209.776V63.5ZM209.776 13.1V12.1H208.776V13.1H209.776ZM220 13.1L220.971 12.8611L220.784 12.1H220V13.1ZM231.088 58.172L230.117 58.4109L232.088 58.172H231.088ZM231.088 13.1V12.1H230.088V13.1H231.088ZM236.92 13.1H237.92V12.1H236.92V13.1ZM236.92 63.5V64.5H237.92V63.5H236.92ZM227.596 63.2626L216.58 18.1906L214.637 18.6654L225.653 63.7374L227.596 63.2626ZM214.608 18.428V63.5H216.608V18.428H214.608ZM215.608 62.5H209.776V64.5H215.608V62.5ZM210.776 63.5V13.1H208.776V63.5H210.776ZM209.776 14.1H220V12.1H209.776V14.1ZM219.029 13.3389L230.117 58.4109L232.059 57.9331L220.971 12.8611L219.029 13.3389ZM232.088 58.172V13.1H230.088V58.172H232.088ZM231.088 14.1H236.92V12.1H231.088V14.1ZM235.92 13.1V63.5H237.92V13.1H235.92ZM236.92 62.5H226.624V64.5H236.92V62.5ZM246.271 63.5H245.271V64.5H246.271V63.5ZM246.271 58.244V57.244H245.271V58.244H246.271ZM251.311 58.244V59.244H252.311V58.244H251.311ZM251.311 18.356H252.311V17.356H251.311V18.356ZM246.271 18.356H245.271V19.356H246.271V18.356ZM246.271 13.1V12.1H245.271V13.1H246.271ZM262.615 13.1H263.615V12.1H262.615V13.1ZM262.615 18.356V19.356H263.615V18.356H262.615ZM257.575 18.356V17.356H256.575V18.356H257.575ZM257.575 58.244H256.575V59.244H257.575V58.244ZM262.615 58.244H263.615V57.244H262.615V58.244ZM262.615 63.5V64.5H263.615V63.5H262.615ZM247.271 63.5V58.244H245.271V63.5H247.271ZM246.271 59.244H251.311V57.244H246.271V59.244ZM252.311 58.244V18.356H250.311V58.244H252.311ZM251.311 17.356H246.271V19.356H251.311V17.356ZM247.271 18.356V13.1H245.271V18.356H247.271ZM246.271 14.1H262.615V12.1H246.271V14.1ZM261.615 13.1V18.356H263.615V13.1H261.615ZM262.615 17.356H257.575V19.356H262.615V17.356ZM256.575 18.356V58.244H258.575V18.356H256.575ZM257.575 59.244H262.615V57.244H257.575V59.244ZM261.615 58.244V63.5H263.615V58.244H261.615ZM262.615 62.5H246.271V64.5H262.615V62.5ZM274.595 60.476L273.912 61.2065L273.92 61.2142L273.928 61.2217L274.595 60.476ZM274.595 16.196L275.269 16.9345L275.27 16.9338L274.595 16.196ZM293.027 13.1H294.027V12.1H293.027V13.1ZM293.027 18.572V19.572H294.027V18.572H293.027ZM279.203 20.156L278.512 19.4334L279.203 20.156ZM293.027 58.028H294.027V57.028H293.027V58.028ZM293.027 63.5V64.5H294.027V63.5H293.027ZM284.243 62.5C280.219 62.5 277.274 61.5293 275.261 59.7303L273.928 61.2217C276.427 63.4547 279.915 64.5 284.243 64.5V62.5ZM275.278 59.7455C273.335 57.9298 272.283 55.1638 272.283 51.26H270.283C270.283 55.5162 271.438 58.8942 273.912 61.2065L275.278 59.7455ZM272.283 51.26V25.34H270.283V51.26H272.283ZM272.283 25.34C272.283 21.4345 273.336 18.6995 275.269 16.9345L273.921 15.4575C271.438 17.7245 270.283 21.0855 270.283 25.34H272.283ZM275.27 16.9338C277.283 15.0919 280.224 14.1 284.243 14.1V12.1C279.909 12.1 276.419 13.1721 273.92 15.4582L275.27 16.9338ZM284.243 14.1H293.027V12.1H284.243V14.1ZM292.027 13.1V18.572H294.027V13.1H292.027ZM293.027 17.572H283.523V19.572H293.027V17.572ZM283.523 17.572C281.534 17.572 279.832 18.1705 278.512 19.4334L279.894 20.8786C280.782 20.0295 281.959 19.572 283.523 19.572V17.572ZM278.512 19.4334C277.216 20.6723 276.547 22.203 276.547 23.972H278.547C278.547 22.765 278.981 21.7517 279.894 20.8786L278.512 19.4334ZM276.547 23.972V52.628H278.547V23.972H276.547ZM276.547 52.628C276.547 54.397 277.216 55.9277 278.512 57.1666L279.894 55.7214C278.981 54.8483 278.547 53.835 278.547 52.628H276.547ZM278.512 57.1666C279.832 58.4295 281.534 59.028 283.523 59.028V57.028C281.959 57.028 280.782 56.5705 279.894 55.7214L278.512 57.1666ZM283.523 59.028H293.027V57.028H283.523V59.028ZM292.027 58.028V63.5H294.027V58.028H292.027ZM293.027 62.5H284.243V64.5H293.027V62.5Z" fill="black" fill-opacity="0.05" mask="url(#path-4-inside-2_7_13)"/>
<path d="M112.733 94.3947H110.71L108.381 82.4947H109.877L111.747 92.8987L113.77 82.4947H115.232L112.733 94.3947ZM122.498 91.6747C122.498 92.6267 122.26 93.3181 121.784 93.7487C121.319 94.1794 120.594 94.3947 119.608 94.3947H119.387C118.401 94.3947 117.67 94.1794 117.194 93.7487C116.729 93.3181 116.497 92.6267 116.497 91.6747V88.6147C116.497 87.6627 116.729 86.9714 117.194 86.5407C117.67 86.1101 118.401 85.8947 119.387 85.8947H119.608C120.594 85.8947 121.319 86.1101 121.784 86.5407C122.26 86.9714 122.498 87.6627 122.498 88.6147V91.6747ZM121.053 88.2747C121.053 87.9234 120.945 87.6514 120.73 87.4587C120.514 87.2661 120.197 87.1697 119.778 87.1697H119.217C118.797 87.1697 118.48 87.2661 118.265 87.4587C118.049 87.6514 117.942 87.9234 117.942 88.2747V92.0147C117.942 92.3661 118.049 92.6381 118.265 92.8307C118.48 93.0234 118.797 93.1197 119.217 93.1197H119.778C120.197 93.1197 120.514 93.0234 120.73 92.8307C120.945 92.6381 121.053 92.3661 121.053 92.0147V88.2747ZM127.77 94.3947C126.773 94.3947 126.042 94.1851 125.577 93.7657C125.113 93.3351 124.88 92.6381 124.88 91.6747V88.6147C124.88 87.6627 125.113 86.9714 125.577 86.5407C126.053 86.1101 126.784 85.8947 127.77 85.8947H129.623V87.1697H127.6C127.181 87.1697 126.864 87.2661 126.648 87.4587C126.433 87.6514 126.325 87.9234 126.325 88.2747V92.0147C126.325 92.3661 126.433 92.6381 126.648 92.8307C126.864 93.0234 127.181 93.1197 127.6 93.1197H129.623V94.3947H127.77ZM135.614 84.5347L134.594 83.2597L133.574 84.5347H131.942L133.846 82.2397H135.342L137.263 84.5347H135.614ZM134.56 94.3947C133.563 94.3947 132.832 94.1851 132.367 93.7657C131.903 93.3351 131.67 92.6381 131.67 91.6747V88.6147C131.67 87.6401 131.88 86.9431 132.299 86.5237C132.719 86.1044 133.416 85.8947 134.39 85.8947H134.849C135.654 85.8947 136.26 86.1214 136.668 86.5747C137.088 87.0167 137.297 87.6684 137.297 88.5297V90.7397H133.115V92.0147C133.115 92.3661 133.223 92.6381 133.438 92.8307C133.654 93.0234 133.971 93.1197 134.39 93.1197H136.753V94.3947H134.56ZM135.886 89.4647V88.1897C135.886 87.8951 135.79 87.6514 135.597 87.4587C135.405 87.2661 135.161 87.1697 134.866 87.1697H134.22C133.812 87.1697 133.523 87.2661 133.353 87.4587C133.195 87.6401 133.115 87.9121 133.115 88.2747V89.4647H135.886ZM144.09 84.0247V82.4947H145.705V84.0247H144.09ZM144.175 94.3947V85.8947H145.62V94.3947H144.175ZM148.342 85.8947H149.702V86.3027C150.054 86.0307 150.507 85.8947 151.062 85.8947H151.164C152.196 85.8947 152.932 86.1554 153.374 86.6767C153.794 86.1554 154.377 85.8947 155.125 85.8947H155.227C156.145 85.8947 156.825 86.1101 157.267 86.5407C157.721 86.9714 157.947 87.6627 157.947 88.6147V94.3947H156.502V88.2747C156.502 87.9347 156.4 87.6684 156.196 87.4757C156.004 87.2717 155.737 87.1697 155.397 87.1697H154.955C154.604 87.1697 154.338 87.2774 154.156 87.4927C153.986 87.6967 153.89 87.9177 153.867 88.1557V94.3947H152.422V88.2747C152.422 87.9347 152.326 87.6684 152.133 87.4757C151.941 87.2717 151.674 87.1697 151.334 87.1697H150.892C150.53 87.1697 150.252 87.2661 150.059 87.4587C149.878 87.6401 149.787 87.8384 149.787 88.0537V94.3947H148.342V85.8947ZM165.593 94.3947C165.445 94.3947 165.281 94.3494 165.1 94.2587C164.93 94.1681 164.782 94.0434 164.658 93.8847C164.397 94.2247 164.051 94.3947 163.621 94.3947H162.448C161.586 94.3947 160.957 94.2247 160.561 93.8847C160.175 93.5334 159.983 92.9384 159.983 92.0997V91.7597C159.983 90.0031 160.81 89.1247 162.465 89.1247H164.233V88.2747C164.233 87.9234 164.125 87.6514 163.91 87.4587C163.694 87.2661 163.377 87.1697 162.958 87.1697H160.663V85.8947H162.788C163.774 85.8947 164.499 86.1101 164.964 86.5407C165.44 86.9714 165.678 87.6627 165.678 88.6147V92.6947C165.678 92.8647 165.74 92.9951 165.865 93.0857C166.001 93.1651 166.222 93.2047 166.528 93.2047V94.3947H165.593ZM163.451 93.1197C163.791 93.1197 164.006 93.0404 164.097 92.8817C164.187 92.7231 164.233 92.5191 164.233 92.2697V90.3997H162.448C162.153 90.3997 161.909 90.4961 161.717 90.6887C161.524 90.8814 161.428 91.1251 161.428 91.4197V92.2697C161.428 92.5644 161.496 92.7797 161.632 92.9157C161.768 93.0517 161.983 93.1197 162.278 93.1197H163.451ZM174.751 94.9897C174.751 95.7604 174.519 96.3327 174.054 96.7067C173.601 97.0921 172.887 97.2847 171.912 97.2847H168.478V96.0097H172.082C172.49 96.0097 172.796 95.9304 173 95.7717C173.204 95.6131 173.306 95.4091 173.306 95.1597V94.6157C173.306 94.3551 173.204 94.1511 173 94.0037C172.796 93.8451 172.49 93.7657 172.082 93.7657H169.243V91.4197C168.869 91.2157 168.591 90.9211 168.41 90.5357C168.229 90.1504 168.138 89.6517 168.138 89.0397V88.6147C168.138 87.6627 168.37 86.9714 168.835 86.5407C169.311 86.1101 170.042 85.8947 171.028 85.8947H174.496V89.0397C174.496 89.8897 174.264 90.5584 173.799 91.0457C173.334 91.5217 172.717 91.7597 171.946 91.7597H170.688V92.4907H171.912C172.887 92.4907 173.601 92.6834 174.054 93.0687C174.519 93.4427 174.751 94.0151 174.751 94.7857V94.9897ZM171.946 90.4847C172.297 90.4847 172.564 90.3714 172.745 90.1447C172.926 89.9181 173.028 89.6801 173.051 89.4307V87.1697H170.858C170.439 87.1697 170.121 87.2661 169.906 87.4587C169.691 87.6514 169.583 87.9234 169.583 88.2747V89.3797C169.583 89.7311 169.691 90.0031 169.906 90.1957C170.121 90.3884 170.439 90.4847 170.858 90.4847H171.946ZM176.878 84.0247V82.4947H178.493V84.0247H176.878ZM176.963 94.3947V85.8947H178.408V94.3947H176.963ZM181.13 85.8947H182.49V86.3027C182.842 86.0307 183.295 85.8947 183.85 85.8947H184.292C185.21 85.8947 185.89 86.1101 186.332 86.5407C186.786 86.9714 187.012 87.6627 187.012 88.6147V94.3947H185.567V88.2747C185.567 87.9347 185.465 87.6684 185.261 87.4757C185.069 87.2717 184.802 87.1697 184.462 87.1697H183.68C183.306 87.1697 183.029 87.2717 182.847 87.4757C182.666 87.6684 182.575 87.8781 182.575 88.1047V94.3947H181.13V85.8947ZM194.662 94.3947C194.515 94.3947 194.35 94.3494 194.169 94.2587C193.999 94.1681 193.852 94.0434 193.727 93.8847C193.466 94.2247 193.121 94.3947 192.69 94.3947H191.517C190.656 94.3947 190.027 94.2247 189.63 93.8847C189.245 93.5334 189.052 92.9384 189.052 92.0997V91.7597C189.052 90.0031 189.879 89.1247 191.534 89.1247H193.302V88.2747C193.302 87.9234 193.194 87.6514 192.979 87.4587C192.764 87.2661 192.446 87.1697 192.027 87.1697H189.732V85.8947H191.857C192.843 85.8947 193.568 86.1101 194.033 86.5407C194.509 86.9714 194.747 87.6627 194.747 88.6147V92.6947C194.747 92.8647 194.809 92.9951 194.934 93.0857C195.07 93.1651 195.291 93.2047 195.597 93.2047V94.3947H194.662ZM192.52 93.1197C192.86 93.1197 193.075 93.0404 193.166 92.8817C193.257 92.7231 193.302 92.5191 193.302 92.2697V90.3997H191.517C191.222 90.3997 190.979 90.4961 190.786 90.6887C190.593 90.8814 190.497 91.1251 190.497 91.4197V92.2697C190.497 92.5644 190.565 92.7797 190.701 92.9157C190.837 93.0517 191.052 93.1197 191.347 93.1197H192.52ZM204.768 94.3947C203.771 94.3947 203.04 94.1851 202.575 93.7657C202.111 93.3351 201.878 92.6381 201.878 91.6747V88.6147C201.878 87.6401 202.088 86.9431 202.507 86.5237C202.927 86.1044 203.624 85.8947 204.598 85.8947H205.057C205.862 85.8947 206.468 86.1214 206.876 86.5747C207.296 87.0167 207.505 87.6684 207.505 88.5297V90.7397H203.323V92.0147C203.323 92.3661 203.431 92.6381 203.646 92.8307C203.862 93.0234 204.179 93.1197 204.598 93.1197H206.961V94.3947H204.768ZM206.094 89.4647V88.1897C206.094 87.8951 205.998 87.6514 205.805 87.4587C205.613 87.2661 205.369 87.1697 205.074 87.1697H204.428C204.02 87.1697 203.731 87.2661 203.561 87.4587C203.403 87.6401 203.323 87.9121 203.323 88.2747V89.4647H206.094ZM214.383 85.8947H215.743V86.3027C216.095 86.0307 216.548 85.8947 217.103 85.8947H217.545C218.463 85.8947 219.143 86.1101 219.585 86.5407C220.039 86.9714 220.265 87.6627 220.265 88.6147V94.3947H218.82V88.2747C218.82 87.9347 218.718 87.6684 218.514 87.4757C218.322 87.2717 218.055 87.1697 217.715 87.1697H216.933C216.559 87.1697 216.282 87.2717 216.1 87.4757C215.919 87.6684 215.828 87.8781 215.828 88.1047V94.3947H214.383V85.8947ZM224.634 84.5347L226.402 82.2397H228.255L226.096 84.5347H224.634ZM228.731 91.6747C228.731 92.6267 228.493 93.3181 228.017 93.7487C227.552 94.1794 226.827 94.3947 225.841 94.3947H225.62C224.634 94.3947 223.903 94.1794 223.427 93.7487C222.962 93.3181 222.73 92.6267 222.73 91.6747V88.6147C222.73 87.6627 222.962 86.9714 223.427 86.5407C223.903 86.1101 224.634 85.8947 225.62 85.8947H225.841C226.827 85.8947 227.552 86.1101 228.017 86.5407C228.493 86.9714 228.731 87.6627 228.731 88.6147V91.6747ZM227.286 88.2747C227.286 87.9234 227.178 87.6514 226.963 87.4587C226.748 87.2661 226.43 87.1697 226.011 87.1697H225.45C225.031 87.1697 224.713 87.2661 224.498 87.4587C224.283 87.6514 224.175 87.9234 224.175 88.2747V92.0147C224.175 92.3661 224.283 92.6381 224.498 92.8307C224.713 93.0234 225.031 93.1197 225.45 93.1197H226.011C226.43 93.1197 226.748 93.0234 226.963 92.8307C227.178 92.6381 227.286 92.3661 227.286 92.0147V88.2747ZM235.772 92.2697C235.772 92.9837 235.551 93.5164 235.109 93.8677C234.678 94.2191 234.049 94.3947 233.222 94.3947H231.029V93.1197H233.392C233.698 93.1197 233.93 93.0574 234.089 92.9327C234.247 92.7967 234.327 92.6041 234.327 92.3547V91.4537C234.327 90.9437 234.083 90.6887 233.596 90.6887H233.307C232.513 90.6887 231.918 90.5187 231.522 90.1787C231.136 89.8274 230.944 89.2777 230.944 88.5297V88.0367C230.944 87.2774 231.159 86.7334 231.59 86.4047C232.02 86.0647 232.655 85.8947 233.494 85.8947H235.432V87.1697H233.324C233.04 87.1697 232.814 87.2377 232.644 87.3737C232.474 87.4984 232.389 87.6854 232.389 87.9347V88.5467C232.389 88.8074 232.462 89.0001 232.61 89.1247C232.768 89.2494 232.967 89.3117 233.205 89.3117H233.443C234.202 89.3117 234.78 89.4987 235.177 89.8727C235.573 90.2354 235.772 90.7794 235.772 91.5047V92.2697ZM245.21 94.3947C244.212 94.3947 243.481 94.1851 243.017 93.7657C242.552 93.3351 242.32 92.6381 242.32 91.6747V88.6147C242.32 87.6627 242.552 86.9714 243.017 86.5407C243.493 86.1101 244.224 85.8947 245.21 85.8947H247.063V87.1697H245.04C244.62 87.1697 244.303 87.2661 244.088 87.4587C243.872 87.6514 243.765 87.9234 243.765 88.2747V92.0147C243.765 92.3661 243.872 92.6381 244.088 92.8307C244.303 93.0234 244.62 93.1197 245.04 93.1197H247.063V94.3947H245.21ZM249.28 85.8947H250.64V86.3537C251.014 86.0477 251.467 85.8947 252 85.8947H253.241V87.2547H251.83C251.456 87.2547 251.178 87.3794 250.997 87.6287C250.816 87.8781 250.725 88.1217 250.725 88.3597V94.3947H249.28V85.8947ZM254.856 84.0247V82.4947H256.471V84.0247H254.856ZM254.941 94.3947V85.8947H256.386V94.3947H254.941ZM264.123 94.3947C263.976 94.3947 263.811 94.3494 263.63 94.2587C263.46 94.1681 263.313 94.0434 263.188 93.8847C262.927 94.2247 262.582 94.3947 262.151 94.3947H260.978C260.117 94.3947 259.488 94.2247 259.091 93.8847C258.706 93.5334 258.513 92.9384 258.513 92.0997V91.7597C258.513 90.0031 259.34 89.1247 260.995 89.1247H262.763V88.2747C262.763 87.9234 262.655 87.6514 262.44 87.4587C262.225 87.2661 261.907 87.1697 261.488 87.1697H259.193V85.8947H261.318C262.304 85.8947 263.029 86.1101 263.494 86.5407C263.97 86.9714 264.208 87.6627 264.208 88.6147V92.6947C264.208 92.8647 264.27 92.9951 264.395 93.0857C264.531 93.1651 264.752 93.2047 265.058 93.2047V94.3947H264.123ZM261.981 93.1197C262.321 93.1197 262.536 93.0404 262.627 92.8817C262.718 92.7231 262.763 92.5191 262.763 92.2697V90.3997H260.978C260.683 90.3997 260.44 90.4961 260.247 90.6887C260.054 90.8814 259.958 91.1251 259.958 91.4197V92.2697C259.958 92.5644 260.026 92.7797 260.162 92.9157C260.298 93.0517 260.513 93.1197 260.808 93.1197H261.981ZM267.093 85.8947H268.453V86.3027C268.805 86.0307 269.258 85.8947 269.813 85.8947H269.915C270.947 85.8947 271.683 86.1554 272.125 86.6767C272.545 86.1554 273.128 85.8947 273.876 85.8947H273.978C274.896 85.8947 275.576 86.1101 276.018 86.5407C276.472 86.9714 276.698 87.6627 276.698 88.6147V94.3947H275.253V88.2747C275.253 87.9347 275.151 87.6684 274.947 87.4757C274.755 87.2717 274.488 87.1697 274.148 87.1697H273.706C273.355 87.1697 273.089 87.2774 272.907 87.4927C272.737 87.6967 272.641 87.9177 272.618 88.1557V94.3947H271.173V88.2747C271.173 87.9347 271.077 87.6684 270.884 87.4757C270.692 87.2717 270.425 87.1697 270.085 87.1697H269.643C269.281 87.1697 269.003 87.2661 268.81 87.4587C268.629 87.6401 268.538 87.8384 268.538 88.0537V94.3947H267.093V85.8947ZM285.16 91.6747C285.16 92.6267 284.922 93.3181 284.446 93.7487C283.981 94.1794 283.256 94.3947 282.27 94.3947H282.049C281.063 94.3947 280.332 94.1794 279.856 93.7487C279.391 93.3181 279.159 92.6267 279.159 91.6747V88.6147C279.159 87.6627 279.391 86.9714 279.856 86.5407C280.332 86.1101 281.063 85.8947 282.049 85.8947H282.27C283.256 85.8947 283.981 86.1101 284.446 86.5407C284.922 86.9714 285.16 87.6627 285.16 88.6147V91.6747ZM283.715 88.2747C283.715 87.9234 283.607 87.6514 283.392 87.4587C283.176 87.2661 282.859 87.1697 282.44 87.1697H281.879C281.459 87.1697 281.142 87.2661 280.927 87.4587C280.711 87.6514 280.604 87.9234 280.604 88.2747V92.0147C280.604 92.3661 280.711 92.6381 280.927 92.8307C281.142 93.0234 281.459 93.1197 281.879 93.1197H282.44C282.859 93.1197 283.176 93.0234 283.392 92.8307C283.607 92.6381 283.715 92.3661 283.715 92.0147V88.2747ZM292.2 92.2697C292.2 92.9837 291.979 93.5164 291.537 93.8677C291.107 94.2191 290.478 94.3947 289.65 94.3947H287.457V93.1197H289.82C290.126 93.1197 290.359 93.0574 290.517 92.9327C290.676 92.7967 290.755 92.6041 290.755 92.3547V91.4537C290.755 90.9437 290.512 90.6887 290.024 90.6887H289.735C288.942 90.6887 288.347 90.5187 287.95 90.1787C287.565 89.8274 287.372 89.2777 287.372 88.5297V88.0367C287.372 87.2774 287.588 86.7334 288.018 86.4047C288.449 86.0647 289.084 85.8947 289.922 85.8947H291.86V87.1697H289.752C289.469 87.1697 289.242 87.2377 289.072 87.3737C288.902 87.4984 288.817 87.6854 288.817 87.9347V88.5467C288.817 88.8074 288.891 89.0001 289.038 89.1247C289.197 89.2494 289.395 89.3117 289.633 89.3117H289.871C290.631 89.3117 291.209 89.4987 291.605 89.8727C292.002 90.2354 292.2 90.7794 292.2 91.5047V92.2697Z" fill="#38A3A5"/>
<path d="M108.259 74.3947L196.054 74.3947" stroke="#22577A" stroke-linecap="round"/>
<path d="M211.201 74.3947L292.875 74.3947" stroke="#22577A" stroke-linecap="round"/>
<g clip-path="url(#clip1_7_13)">
<path d="M206.349 69.4725C205.707 68.8354 204.855 68.4878 203.951 68.4948C202.104 68.5083 200.604 70.0227 200.608 71.8705C200.61 72.7287 200.935 73.5453 201.523 74.1701C202.155 74.8415 202.503 75.7041 202.503 76.6002C202.503 76.6071 202.504 77.1796 202.504 77.1796C202.504 77.4405 202.716 77.6527 202.977 77.6527H203.134V78.0216C203.134 78.2825 203.347 78.4947 203.608 78.4947H204.345C204.606 78.4947 204.818 78.2825 204.818 78.0216V77.6527H204.976C205.237 77.6527 205.449 77.4405 205.449 77.1796C205.449 77.1796 205.45 76.6057 205.45 76.5989C205.45 75.696 205.793 74.8387 206.416 74.185C207.015 73.5562 207.344 72.7315 207.344 71.8627C207.344 70.9584 206.991 70.1096 206.349 69.4725ZM204.397 78.0216C204.397 78.0504 204.374 78.0738 204.345 78.0738H203.607C203.579 78.0738 203.555 78.0504 203.555 78.0216V77.6528H204.397L204.397 78.0216ZM204.976 77.2318H202.977C202.948 77.2318 202.925 77.2084 202.925 77.1796V76.8107H205.028V77.1796C205.028 77.2084 205.005 77.2318 204.976 77.2318ZM203.715 74.8952L203.089 72.536C203.162 72.5704 203.258 72.6008 203.396 72.6008C203.597 72.6008 203.71 72.5357 203.792 72.4881C203.854 72.4522 203.888 72.4324 203.976 72.4324C204.065 72.4324 204.099 72.4522 204.161 72.4881C204.243 72.5357 204.355 72.6008 204.557 72.6008C204.695 72.6008 204.791 72.5704 204.864 72.536L204.238 74.8952H203.715ZM204.187 75.3162V76.3898H203.766V75.3162H204.187ZM206.111 73.8946C205.462 74.5761 205.084 75.4549 205.034 76.3897H204.608V75.1414L205.358 72.318C205.372 72.2654 205.364 72.2123 205.341 72.1675C205.317 72.0776 205.235 72.0114 205.138 72.0114C204.936 72.0114 204.824 72.0765 204.742 72.124C204.68 72.16 204.646 72.1798 204.557 72.1798C204.468 72.1798 204.434 72.16 204.372 72.124C204.29 72.0765 204.178 72.0114 203.976 72.0114C203.774 72.0114 203.662 72.0765 203.58 72.124C203.518 72.16 203.484 72.1798 203.396 72.1798C203.307 72.1798 203.273 72.16 203.211 72.124C203.129 72.0765 203.017 72.0114 202.815 72.0114C202.718 72.0114 202.636 72.0776 202.612 72.1675C202.589 72.2123 202.581 72.2654 202.595 72.318L203.345 75.1414V76.3897H202.918C202.868 75.4628 202.486 74.5791 201.83 73.8816C201.315 73.335 201.031 72.6204 201.029 71.8696C201.026 70.2527 202.338 68.9276 203.954 68.9158C204.747 68.9102 205.491 69.2138 206.053 69.7712C206.614 70.3287 206.923 71.0715 206.923 71.8627C206.923 72.6228 206.635 73.3444 206.111 73.8946Z" fill="#38A3A5"/>
<path d="M206.051 70.4227C205.762 70.0083 205.362 69.6925 204.894 69.5093C204.786 69.467 204.664 69.5204 204.622 69.6287C204.579 69.7369 204.633 69.859 204.741 69.9014C205.543 70.2151 206.081 71.0033 206.081 71.8627C206.081 71.979 206.176 72.0732 206.292 72.0732C206.408 72.0732 206.502 71.979 206.502 71.8627C206.502 71.3451 206.346 70.8471 206.051 70.4227Z" fill="#38A3A5"/>
<path d="M203.976 69.3368C203.976 69.3368 203.976 69.3368 203.976 69.3368L203.958 69.3368C203.842 69.3372 203.748 69.4318 203.748 69.5481C203.749 69.6641 203.843 69.7578 203.959 69.7578C203.959 69.7578 203.959 69.7578 203.96 69.7578L203.977 69.7578C204.093 69.7573 204.187 69.6628 204.187 69.5465C204.186 69.4305 204.092 69.3368 203.976 69.3368Z" fill="#38A3A5"/>
</g>
<path d="M207.811 69.5439L208.686 69.0236" stroke="#38A3A5" stroke-linecap="round"/>
<path d="M199.686 69.4307L198.811 68.9104" stroke="#38A3A5" stroke-linecap="round"/>
<path d="M201.786 67.6661L201.201 66.7942" stroke="#38A3A5" stroke-linecap="round"/>
<path d="M206.274 67.6661L206.86 66.7942" stroke="#38A3A5" stroke-linecap="round"/>
<path d="M203.959 67.2302L203.959 66.1549" stroke="#38A3A5" stroke-linecap="round"/>
<path d="M199.248 72.5186L198.248 72.5186" stroke="#38A3A5" stroke-linecap="round"/>
<path d="M208.248 72.5186H209.248" stroke="#38A3A5" stroke-linecap="round"/>
</g>
<defs>
<radialGradient id="paint0_diamond_7_13" cx="0" cy="0" r="1" gradientUnits="userSpaceOnUse" gradientTransform="translate(201 40) rotate(90) scale(40.5 95.5)">
<stop stop-color="#3EA0E0"/>
<stop offset="1" stop-color="#22577A"/>
</radialGradient>
<clipPath id="clip0_7_13">
<rect width="296" height="99" fill="white" transform="translate(0.5)"/>
</clipPath>
<clipPath id="clip1_7_13">
<rect width="10" height="10" fill="white" transform="translate(198.976 68.4948)"/>
</clipPath>
</defs>
</svg>
